  <svg viewBox="0 0 24 24" width="24px" height="24px" x="0" y="0"
    preserveAspectRatio="xMinYMin meet" class="nav-icon" focusable="false" xmlns="http://www.w3.org/2000/svg">
    <path d="M22,8.45L12.85,2.26a1.5,1.5,0,0,0-1.69,0L2,8.45,3.06,10,4,9.37V19a1,1,0,0,0,1,1h5V15h4v5h5a1,1,0,0,0,1-1V9.37L20.94,10Z"
      class="active-item" style="fill-opacity: 1"></path>
    <path d="M22,9.45L12.85,3.26a1.5,1.5,0,0,0-1.69,0L2,9.45,3.06,11,4,10.37V20a1,1,0,0,0,1,1h6V16h2v5h6a1,1,0,0,0,1-1V10.37L20.94,11ZM18,19H15V15a1,1,0,0,0-1-1H10a1,1,0,0,0-1,1v4H6V8.89l6-4,6,4V19Z"
      class="inactive-item" style="fill: currentColor"></path>
  </svg>
